<svg width="595" height="905" viewBox="0 0 595 905" fill="none" xmlns="http://www.w3.org/2000/svg">
<g opacity="0.1">
<path d="M-343.155 136.32C-103.227 25.6777 172.171 -72.6077 384.702 81.7426C598.499 228.363 696.226 617.971 439.174 814.255C180.534 1015.91 -269.46 842.692 -455.753 609.6C-649.521 374.379 -576.312 249.386 -343.155 136.32Z" stroke="#DE8500" stroke-width="2.66667" stroke-miterlimit="10" stroke-linecap="round" stroke-linejoin="round"/>
<path d="M-294.889 180.012C-92.2899 81.8171 153.739 14.7688 335.673 149.877C518.105 279.784 582.602 598.631 366.956 758.431C150.664 922.066 -221.365 793.208 -384.537 600.857C-552.584 406.77 -492.992 280.222 -294.889 180.012V180.012Z" stroke="#DE8500" stroke-width="2.66667" stroke-miterlimit="10" stroke-linecap="round" stroke-linejoin="round"/>
<path d="M-236.352 233.527C-76.8154 151.705 128.913 114.165 273.652 224.989C418.377 332.839 453.23 572.717 285.043 692.992C116.826 815.599 -167.743 730.592 -300.84 583.7C-436.613 435.532 -393.375 316.797 -236.352 233.527V233.527Z" stroke="#DE8500" stroke-width="2.66667" stroke-miterlimit="10" stroke-linecap="round" stroke-linejoin="round"/>
<path d="M-190.077 276.011C-63.1121 208.117 107.576 187.765 223.158 278.645C338.571 367.774 357.134 550.855 224.456 643.147C91.9327 736.895 -128.84 679.411 -237.068 565.515C-346.812 450.72 -315.593 344.901 -190.077 276.011V276.011Z" stroke="#DE8500" stroke-width="2.66667" stroke-miterlimit="10" stroke-linecap="round" stroke-linejoin="round"/>
<path d="M-128.096 332.861C-43.0778 284.964 76.9217 279.732 154.217 342.886C231.341 405.307 236.366 520.358 148.67 579.171C61.1485 638.617 -81.2883 608.988 -155.307 535.486C-229.902 461.538 -212.551 381.241 -128.096 332.861V332.861Z" stroke="#DE8500" stroke-width="2.66667" stroke-miterlimit="10" stroke-linecap="round" stroke-linejoin="round"/>
<path d="M-63.8372 391.409C-20.6618 365.849 42.9571 367.487 81.9104 400.687C120.793 433.713 119.955 487.928 76.0662 516.289C32.2416 544.816 -37.1303 534.233 -75.2434 498.376C-113.477 462.398 -106.898 417.113 -63.8372 391.409V391.409Z" stroke="#DE8500" stroke-width="2.66667" stroke-miterlimit="10" stroke-linecap="round" stroke-linejoin="round"/>
</g>
</svg>
